<svg version="1.1" id="Layer_1" xmlns="http://www.w3.org/2000/svg" xmlns:xlink="http://www.w3.org/1999/xlink" x="0px" y="0px"
	 width="100%" viewBox="0 0 592 576" enable-background="new 0 0 592 576" xml:space="preserve">
<path fill="#000000" opacity="1.000000" stroke="none" 
	d="
M440.428467,577.000000 
	C439.623413,576.451904 439.360718,575.745850 438.852966,575.379578 
	C432.365601,570.699646 429.157410,564.894836 431.672333,556.664551 
	C432.640991,553.494507 430.867035,551.129578 428.452332,548.893433 
	C407.062012,529.084961 385.760895,509.179993 364.481628,489.252014 
	C357.917908,483.105164 351.562775,476.735443 344.994293,470.593811 
	C341.593475,467.414001 341.508606,464.564178 344.831421,461.272888 
	C348.142426,457.993225 351.195557,454.453430 354.366028,451.031677 
	C361.243683,443.608978 361.244812,443.610016 369.559387,449.051544 
	C372.548859,443.768219 372.043945,438.182037 371.149048,432.683563 
	C368.472931,416.240265 360.116364,402.516754 350.146362,389.593933 
	C337.749237,373.525146 322.157013,360.620239 307.568024,346.742554 
	C280.168762,320.679199 252.527740,294.869995 224.985825,268.956573 
	C208.484467,253.430939 191.981918,237.906555 175.471390,222.390656 
	C174.880234,221.835114 174.198441,221.376022 173.417374,220.760452 
	C169.489944,223.570068 166.580765,227.237686 163.405685,230.591721 
	C154.816849,239.664581 146.482849,248.981628 137.781479,257.943298 
	C134.932190,260.877838 135.277969,262.625488 138.066452,265.199646 
	C144.386597,271.034027 144.312912,271.162506 140.176849,278.496429 
	C139.462723,279.762695 139.271133,280.909332 139.672714,282.283539 
	C141.044556,286.977997 138.004776,289.564178 134.669922,291.539825 
	C131.379791,293.488983 128.713089,291.497650 126.256844,289.207397 
	C105.177994,269.553192 84.122696,249.872849 62.904938,230.369431 
	C59.748901,227.468399 60.562634,225.739349 63.016796,223.121841 
	C91.500389,192.742264 119.912346,162.295486 148.324005,131.848511 
	C170.257233,108.344048 192.150436,84.802216 214.091629,61.305183 
	C218.612198,56.464092 218.703491,56.489658 223.457657,60.915092 
	C243.820435,79.869934 264.169495,98.839531 284.508484,117.819885 
	C287.211914,120.342720 290.300720,122.953857 288.180908,127.182861 
	C286.289093,130.957047 283.482910,133.730301 278.621002,132.467728 
	C276.902496,132.021454 275.865570,133.190720 274.684753,134.130524 
	C270.350342,137.580292 268.068207,137.460388 263.785767,133.671555 
	C258.408295,128.913910 258.390686,128.897430 253.470322,134.158508 
	C243.343643,144.986374 233.357559,155.949677 223.046951,166.599045 
	C220.129944,169.611908 220.718781,171.251801 223.427139,173.787277 
	C246.897995,195.759979 270.264496,217.844101 293.670258,239.886368 
	C322.049561,266.612457 350.255615,293.526245 378.890167,319.976135 
	C395.440613,335.263885 413.977875,347.564178 436.281219,353.082184 
	C441.473480,354.366821 446.756287,355.045868 452.120605,354.657806 
	C454.900482,354.456757 457.692596,354.186066 459.975342,352.302399 
	C456.234436,345.415924 456.237000,345.418335 461.733154,339.543152 
	C465.261169,335.771912 468.711639,331.925232 472.321899,328.234680 
	C476.198212,324.272156 477.747009,324.402832 481.974243,327.988525 
	C509.425659,351.274078 534.973511,376.633759 561.418518,401.013885 
	C565.801331,405.054565 569.772339,407.931946 575.838684,405.726562 
	C581.287170,403.745728 585.421875,405.708618 588.896851,409.974884 
	C589.816895,411.104370 591.191772,411.863373 592.678833,412.896240 
	C593.000000,415.041656 593.000000,417.083344 592.689331,419.660156 
	C590.520020,421.462738 588.518738,422.608185 588.036621,425.082581 
	C589.438232,426.838959 590.751099,428.509064 593.000000,429.000000 
	C593.000000,436.354248 593.000000,443.708496 592.699402,451.667786 
	C585.525208,458.414429 579.414856,464.950409 577.376404,474.501617 
	C576.522461,478.502625 574.473938,482.286133 572.716797,486.051025 
	C557.710449,518.205139 532.033691,538.910767 500.437256,553.229370 
	C498.324005,554.187012 496.012390,554.780334 494.380249,556.590881 
	C488.250275,563.391052 482.126251,570.196533 476.000000,577.000000 
	C470.311951,577.000000 464.623932,577.000000 458.287109,576.725342 
	C455.843842,574.297913 453.903076,572.322327 451.400665,570.933899 
	C449.162933,572.808533 447.067535,574.438538 446.000000,577.000000 
	C444.285645,577.000000 442.571289,577.000000 440.428467,577.000000 
M530.712952,508.219482 
	C546.478699,491.013397 552.462158,470.806122 549.034119,447.812805 
	C544.040222,414.316986 512.792114,387.040283 475.221039,389.005341 
	C432.407684,391.244629 400.197632,432.389099 409.754761,474.023163 
	C415.922791,500.893188 432.322571,519.254700 458.637177,527.301697 
	C485.872040,535.630066 509.865540,528.430298 530.712952,508.219482 
M251.161697,235.351929 
	C242.194901,227.147797 233.228256,218.943497 224.260925,210.739944 
	C223.770157,210.290955 223.305099,209.806290 222.775055,209.408951 
	C218.932159,206.528046 214.828659,206.671402 211.987808,209.764542 
	C209.164383,212.838684 209.489960,216.859039 213.070312,220.306534 
	C230.582382,237.168762 248.221451,253.899872 265.658783,270.838806 
	C297.069641,301.351898 328.713684,331.649414 357.901855,364.344513 
	C368.985260,376.759583 379.563965,389.632019 390.151581,402.478241 
	C392.978394,405.908142 395.618622,407.083435 399.978394,405.486237 
	C409.057617,402.160095 414.971710,395.957642 418.505310,387.128235 
	C420.495026,382.156525 419.736145,378.182007 415.295776,374.855560 
	C407.169189,368.767578 399.136566,362.552063 391.132782,356.302612 
	C342.656677,318.451904 297.173340,277.135498 251.161697,235.351929 
M141.898132,158.528778 
	C141.353577,160.271225 140.686417,161.985901 140.284225,163.760605 
	C137.511246,175.996887 141.215729,186.281906 150.695938,194.078262 
	C160.585327,202.211136 171.949112,203.465256 183.396210,197.763885 
	C194.996109,191.986374 200.837509,182.071747 200.573318,169.078323 
	C200.300369,155.653534 190.091995,143.961243 176.481079,140.779129 
	C162.613342,137.537003 149.574234,144.028046 141.898132,158.528778 
z"/>
<path fill="#000000" opacity="1.000000" stroke="none" 
	d="
M1.000000,435.428467 
	C5.806070,432.754333 8.871121,428.437073 12.725502,425.065765 
	C14.727030,423.315063 13.035076,421.814880 11.900099,420.379761 
	C7.158815,414.384766 7.476554,414.230347 12.739763,408.467651 
	C16.943241,403.865265 21.347931,402.347229 27.292208,404.269012 
	C31.533003,405.640045 35.090141,404.450745 38.563690,401.173981 
	C59.892426,381.053497 81.408936,361.131287 102.945763,341.232697 
	C108.810471,335.814117 114.974571,330.720337 120.973061,325.445374 
	C123.741898,323.010529 126.339752,323.132507 128.842194,325.789062 
	C132.840714,330.033875 136.775040,334.340546 140.831238,338.529297 
	C144.402100,342.216858 147.209595,345.878143 141.003281,350.640503 
	C148.283356,353.886383 154.937607,353.309235 161.362839,352.230865 
	C178.502747,349.354279 193.267517,341.051819 207.296387,331.212067 
	C218.951233,323.037445 228.984390,313.025665 239.183075,303.210632 
	C241.823318,300.669678 243.710449,299.943085 246.540421,303.024628 
	C250.228287,307.040314 254.392029,310.618988 258.707855,314.725250 
	C253.262802,321.056793 246.792175,325.467468 240.898071,330.474762 
	C224.137131,344.713928 206.571869,357.939056 189.068481,371.241455 
	C181.199417,377.221863 180.738037,380.042755 185.167038,389.065155 
	C188.577499,396.012695 193.984390,400.574799 201.058960,403.479736 
	C205.522522,405.312531 208.703156,404.496765 211.933121,400.644470 
	C225.095215,384.946411 237.875534,368.913086 251.903305,353.956726 
	C258.627136,346.787781 265.476288,339.736237 272.181061,332.549774 
	C274.039276,330.558044 275.608124,330.291565 277.618225,332.268188 
	C281.656860,336.239563 285.738647,340.170624 289.907471,344.004364 
	C291.992889,345.922211 291.946350,347.363708 289.833466,349.296722 
	C283.934113,354.693787 278.221832,360.294556 272.382935,365.758514 
	C257.298004,379.874664 244.088654,395.412903 235.745728,414.561249 
	C232.333008,422.394012 230.145630,430.558075 230.309143,439.232208 
	C230.360504,441.956970 231.029816,444.417419 232.026428,446.723206 
	C232.692551,446.774384 233.105576,446.941711 233.314163,446.802551 
	C240.864929,441.766357 240.819870,441.800049 247.002609,448.763123 
	C250.430893,452.624084 253.996719,456.365082 257.560669,460.102814 
	C260.424072,463.105865 260.335480,465.764282 257.249115,468.657288 
	C231.248962,493.028687 205.304352,517.459290 179.339111,541.867920 
	C178.368500,542.780334 177.441650,543.772827 176.351257,544.518677 
	C170.059616,548.822327 169.003311,554.728638 171.001007,561.600159 
	C171.736328,564.129333 170.981918,566.131592 169.067413,567.866882 
	C167.093155,569.656311 165.188660,571.525757 163.304520,573.411011 
	C160.194138,576.523193 157.062408,576.629333 154.438522,573.046570 
	C151.485107,569.013672 148.862717,569.113953 145.907043,572.915771 
	C144.892059,574.221313 143.597488,575.309570 142.215332,576.748535 
	C137.310745,577.000000 132.621490,577.000000 127.369873,576.674927 
	C117.370331,566.223572 109.443573,554.938538 95.995155,548.683350 
	C59.713120,531.807739 33.867512,505.038605 22.239712,465.912872 
	C21.558540,463.620850 20.467268,461.637756 18.827940,459.906830 
	C12.871572,453.617554 6.940572,447.304230 1.000000,441.000000 
	C1.000000,439.285645 1.000000,437.571289 1.000000,435.428467 
M167.434830,512.947449 
	C183.096664,499.953796 192.277313,483.296783 193.545731,463.047180 
	C196.184540,420.920685 163.975693,387.207825 121.847412,387.298218 
	C76.902649,387.394623 43.097214,430.678528 53.846687,474.365173 
	C66.319077,525.053833 124.920746,545.294189 167.434830,512.947449 
z"/>
<path fill="#000000" opacity="1.000000" stroke="none" 
	d="
M593.000000,189.666672 
	C591.889832,191.656464 590.968445,193.486588 589.634399,194.937180 
	C585.429688,199.509171 582.289612,199.499237 578.038574,194.946777 
	C533.576111,147.331619 489.137054,99.694580 444.678253,52.076008 
	C435.127045,41.845985 425.511475,31.676075 415.948242,21.457260 
	C412.452637,17.722006 412.628632,14.516498 416.432800,10.790718 
	C419.805756,7.487316 424.218964,7.391252 427.385925,10.780464 
	C451.728119,36.831005 476.019836,62.928734 500.350342,88.990227 
	C522.065125,112.249901 543.812256,135.479370 565.539368,158.727585 
	C574.525635,168.342987 583.496826,177.972519 592.737427,187.797821 
	C593.000000,188.444443 593.000000,188.888901 593.000000,189.666672 
z"/>
<path fill="#000000" opacity="1.000000" stroke="none" 
	d="
M1.000000,167.428467 
	C8.125216,161.182724 14.126574,154.226273 20.364317,147.541275 
	C64.123383,100.644684 107.772301,53.645298 151.455994,6.678372 
	C156.218582,1.557828 156.840530,1.451488 162.464828,5.768880 
	C164.412231,7.263775 166.608826,8.588120 168.068985,11.473969 
	C166.195160,13.682433 164.283279,16.137592 162.166336,18.400940 
	C121.199783,62.200539 80.204445,105.973206 39.227592,149.763184 
	C30.691689,158.885086 22.228127,168.074722 13.688324,177.192947 
	C8.962991,182.238358 8.506560,182.187790 4.327047,176.895355 
	C3.400165,175.721664 2.479850,174.542801 1.278258,173.183151 
	C1.000000,171.285645 1.000000,169.571289 1.000000,167.428467 
z"/>
<path fill="#000000" opacity="1.000000" stroke="none" 
	d="
M446.625000,0.999999 
	C468.914215,24.681250 490.773132,48.413940 512.757263,72.030113 
	C537.688232,98.811920 562.726562,125.493782 587.737427,152.201096 
	C589.210449,153.774063 590.854553,155.186783 592.709473,156.837036 
	C593.000000,164.354248 593.000000,171.708496 593.000000,179.531372 
	C585.881897,174.214844 580.148682,167.057556 573.922729,160.416016 
	C528.061768,111.493721 482.379639,62.403816 436.545410,13.456395 
	C433.683350,10.399906 433.400696,8.321614 437.000031,6.002849 
	C439.227386,4.567927 441.372345,3.005044 443.777130,1.249797 
	C444.750000,1.000000 445.500000,1.000000 446.625000,0.999999 
z"/>
<path fill="#000000" opacity="1.000000" stroke="none" 
	d="
M358.145142,142.849792 
	C353.245880,137.642059 348.593048,132.688034 344.022797,127.821968 
	C341.096344,128.953506 339.701111,131.142349 337.827576,132.731430 
	C334.421844,135.620056 331.046173,136.216095 327.698792,132.718231 
	C326.218658,131.171524 324.757416,130.505707 322.419098,131.009232 
	C318.088562,131.941757 315.549347,129.102783 313.812683,125.676308 
	C312.088806,122.274986 313.784943,119.597076 316.274323,117.283478 
	C337.506195,97.550873 358.795227,77.879005 379.905182,58.016815 
	C382.967987,55.135048 384.574799,55.782112 387.113953,58.514751 
	C423.515900,97.690193 460.011292,136.778793 496.482971,175.889420 
	C510.685822,191.119949 524.826233,206.409576 539.140747,221.534348 
	C541.772644,224.315201 542.010925,226.070389 539.051941,228.802551 
	C517.880066,248.351456 496.840668,268.043884 475.763000,287.694794 
	C473.144470,290.136108 470.159424,291.761414 466.767181,289.703918 
	C463.500641,287.722687 461.054565,284.860321 462.298767,280.593994 
	C462.909821,278.498657 462.169189,277.082336 460.931549,275.617401 
	C457.690063,271.780670 458.540588,268.465149 461.997986,265.166748 
	C467.485931,259.931244 467.403900,259.845978 462.311218,254.391647 
	C452.420044,243.798035 442.410583,233.310974 432.709259,222.546249 
	C429.729767,219.240173 427.773163,219.342758 424.669586,222.302139 
	C404.053040,241.961273 383.291779,261.468597 362.587158,281.035431 
	C357.391235,285.945831 357.363159,286.006775 352.426117,281.067413 
	C347.966095,276.605255 343.616638,272.032593 339.066925,267.352814 
	C340.410095,264.284729 343.277222,262.445801 345.625244,260.186279 
	C360.030762,246.323608 374.521820,232.549545 388.888824,218.647232 
	C393.651306,214.038773 392.456451,207.921310 386.633972,205.992966 
	C383.358154,204.908035 380.690735,206.411819 378.450928,208.446243 
	C362.422455,223.004791 346.362061,237.532089 330.576935,252.351746 
	C327.053833,255.659378 324.809418,255.769806 321.644806,252.258820 
	C318.642639,248.928085 315.325653,245.826523 311.842834,242.998962 
	C308.321075,240.139816 308.066895,238.242737 311.689209,234.887619 
	C333.445496,214.736298 354.962738,194.326569 376.528992,173.970520 
	C382.204285,168.613724 382.168823,168.546356 376.830627,162.813034 
	C370.699951,156.228592 364.539215,149.672119 358.145142,142.849792 
M424.119263,139.440933 
	C421.823914,140.411758 419.458649,141.245728 417.244812,142.376144 
	C405.066681,148.594482 398.724640,163.787430 402.609222,177.259415 
	C406.512390,190.795959 421.011292,200.964691 434.428101,199.575500 
	C451.860382,197.770538 465.247772,181.086838 462.448364,164.655960 
	C459.393005,146.722565 442.721466,135.457596 424.119263,139.440933 
z"/>
<path fill="#000000" opacity="1.000000" stroke="none" 
	d="
M540.620605,214.378723 
	C490.274841,160.450302 440.165405,106.784576 390.072144,53.103813 
	C385.233887,47.919064 384.927887,44.108200 388.793335,39.514511 
	C392.382111,35.249603 395.170227,35.087952 398.982422,39.144558 
	C411.638275,52.611778 424.251343,66.119247 436.867615,79.623596 
	C466.984253,111.860123 497.090759,144.106094 527.206848,176.343140 
	C537.776489,187.657120 548.291443,199.023651 558.985168,210.219345 
	C562.059631,213.438080 563.491333,216.246689 559.887085,219.981796 
	C556.169861,223.833954 551.041504,224.693268 547.406189,221.498520 
	C545.041199,219.420151 543.030823,216.938309 540.620605,214.378723 
z"/>
<path fill="#000000" opacity="1.000000" stroke="none" 
	d="
M201.950256,41.962059 
	C206.475891,36.831738 208.094406,36.531467 211.915329,39.894493 
	C216.443817,43.880280 217.057693,49.252934 213.201782,53.423100 
	C203.028900,64.425095 192.747192,75.326378 182.524658,86.282547 
	C146.746384,124.628456 110.979088,162.984604 75.196777,201.326767 
	C68.721634,208.265137 62.254738,215.213028 55.669216,222.045868 
	C52.065090,225.785370 48.350594,226.184891 44.478233,223.635773 
	C39.222729,220.176163 38.842659,216.711426 43.216557,212.025497 
	C96.048409,155.424561 148.881485,98.824760 201.950256,41.962059 
z"/>
<path fill="#000000" opacity="1.000000" stroke="none" 
	d="
M168.642944,41.633949 
	C139.224701,73.188225 110.050774,104.490524 80.853096,135.770660 
	C61.650826,156.342499 42.425098,176.892502 23.183105,197.427185 
	C19.746998,201.094147 17.143703,200.934448 13.077650,197.026611 
	C9.000542,193.108109 8.740857,190.063034 12.193514,186.370026 
	C43.239944,153.162521 74.295807,119.963829 105.335297,86.749840 
	C128.187531,62.296646 151.006882,37.812706 173.870804,13.370431 
	C178.535522,8.383683 183.749466,9.058616 187.214844,14.836652 
	C189.003464,17.818930 188.890335,20.100868 186.257614,22.753777 
	C180.279938,28.777246 174.649048,35.144855 168.642944,41.633949 
z"/>
<path fill="#000000" opacity="1.000000" stroke="none" 
	d="
M438.237091,73.754501 
	C425.720428,60.356770 413.431854,47.229591 401.176727,34.071289 
	C397.851562,30.501116 398.272247,27.014359 402.289886,23.394199 
	C405.508972,20.493576 408.089905,20.130684 411.495239,23.803635 
	C450.319153,65.678001 489.302185,107.404877 528.252869,149.161652 
	C543.924011,165.961746 559.550903,182.804169 575.366577,199.467239 
	C578.329468,202.588776 579.267029,204.930328 575.680054,208.094116 
	C571.153748,212.086472 567.752136,212.604828 564.540588,209.161285 
	C531.153870,173.363342 497.799744,137.535065 464.424896,101.726097 
	C455.796906,92.468872 447.127899,83.249908 438.237091,73.754501 
z"/>
<path fill="#000000" opacity="1.000000" stroke="none" 
	d="
M79.564186,144.565216 
	C103.330521,119.118019 126.854729,93.927673 150.374878,68.733528 
	C163.782104,54.372063 177.315933,40.124912 190.493576,25.555683 
	C193.829651,21.867315 196.340332,21.992918 199.612457,24.985010 
	C203.699188,28.722017 204.213623,32.006409 200.855865,35.632984 
	C190.109726,47.239418 179.263519,58.753136 168.473511,70.319023 
	C132.698669,108.666336 96.941399,147.030029 61.153652,185.365295 
	C53.314144,193.762863 45.380325,202.072449 37.481171,210.414230 
	C35.872433,212.113129 34.306015,214.059586 31.534914,212.851273 
	C28.268398,211.426926 25.220636,209.633362 24.021231,206.018387 
	C23.392305,204.122879 25.064682,202.991089 26.168959,201.805771 
	C43.874935,182.800293 61.599796,163.812393 79.564186,144.565216 
z"/>
<path fill="#000000" opacity="1.000000" stroke="none" 
	d="
M171.809448,196.296814 
	C160.362045,196.643829 151.827728,192.376801 146.951767,182.339661 
	C142.388031,172.945175 142.843399,163.583282 149.227020,155.039490 
	C156.549759,145.238785 168.973434,142.093155 180.530579,146.814453 
	C190.309296,150.809235 197.068329,162.505600 195.705688,173.074677 
	C194.004593,186.268967 185.644592,194.546982 171.809448,196.296814 
M184.460052,175.521286 
	C184.644470,173.868607 184.990280,172.215515 184.986069,170.563324 
	C184.965256,162.387985 179.189743,155.980362 171.383362,155.355499 
	C163.024063,154.686371 155.952728,160.324585 154.777191,168.596191 
	C153.757858,175.768478 158.443802,182.950912 165.589142,185.168411 
	C172.692688,187.372955 180.146408,183.798065 184.460052,175.521286 
z"/>
<path fill="#000000" opacity="1.000000" stroke="none" 
	d="
M447.702209,189.851013 
	C429.017212,201.400421 408.516113,191.785660 406.232819,170.758728 
	C404.775482,157.337952 414.586975,145.404037 428.849304,143.249893 
	C441.931610,141.273972 454.965546,150.487152 457.362122,163.348602 
	C459.336426,173.943741 456.215668,182.687576 447.702209,189.851013 
M440.841980,156.551071 
	C432.024445,151.400238 423.177887,153.508392 418.696899,161.828278 
	C414.504456,169.612564 417.451996,178.503662 425.558258,182.524918 
	C432.083038,185.761642 440.188446,183.772461 444.273193,177.931992 
	C449.171295,170.928635 448.145966,163.400513 440.841980,156.551071 
z"/>
</svg>