<svg version="1.1" id="Layer_1" xmlns="http://www.w3.org/2000/svg" xmlns:xlink="http://www.w3.org/1999/xlink" x="0px" y="0px"
	 width="100%" viewBox="0 0 976 976" enable-background="new 0 0 976 976" xml:space="preserve">
<path fill="#000000" opacity="1.000000" stroke="none" 
	d="
M200.380844,769.986084 
	C188.674713,771.697693 179.551102,767.996155 171.669052,759.751587 
	C160.271149,747.829468 148.421371,736.337708 136.705460,724.721802 
	C122.867844,711.002502 121.834099,694.975037 134.449829,680.236816 
	C150.915726,661.000671 167.669846,642.010437 184.375839,622.981018 
	C189.844070,616.752258 189.954910,616.846008 186.069397,609.498901 
	C177.946533,594.139343 171.132446,578.227295 166.630356,561.429810 
	C165.517868,557.279053 163.329819,555.745117 159.396225,555.499023 
	C142.945587,554.469788 126.491280,553.475586 110.055695,552.237671 
	C98.275993,551.350403 86.402809,551.395752 74.734520,549.364197 
	C61.133392,546.996216 50.915916,535.074585 50.781494,521.288086 
	C50.594639,502.123932 50.586121,482.955261 50.773903,463.791168 
	C50.928261,448.038116 63.566963,435.792969 80.075912,434.739410 
	C105.825340,433.096191 131.561966,431.247101 157.316727,429.696655 
	C162.825043,429.365051 165.713776,427.560669 167.224564,421.718689 
	C171.621384,404.717224 178.734573,388.703766 187.325897,373.406158 
	C189.511505,369.514496 188.942169,367.020142 186.082489,363.797668 
	C169.163086,344.731812 152.453461,325.479736 135.678284,306.285950 
	C127.933357,297.424347 123.594208,287.590759 126.809402,275.545135 
	C128.086823,270.759338 130.375809,266.553162 133.841537,263.056549 
	C146.742661,250.040527 159.505280,236.878632 172.687225,224.151993 
	C185.968796,211.329193 201.728577,210.934860 215.735306,222.934326 
	C235.853271,240.169220 255.799103,257.606873 275.671021,275.125183 
	C278.689209,277.785858 281.041412,278.070404 284.490021,276.100342 
	C300.474518,266.969055 317.404968,259.987640 335.134796,255.083389 
	C339.329315,253.923141 340.514740,251.832306 340.784241,247.732040 
	C342.595886,220.171143 344.291626,192.593262 346.793884,165.090851 
	C348.171600,149.947952 360.662018,139.695663 375.869720,139.640045 
	C389.035767,139.591888 402.202026,139.592880 415.368195,139.601105 
	C426.655914,139.608170 429.408478,142.390137 429.411377,153.856033 
	C429.425659,210.187241 429.422241,266.518433 429.427124,322.849640 
	C429.427490,327.181976 429.511627,331.515656 429.427246,335.846191 
	C429.374939,338.532532 430.329346,339.765533 433.203979,339.751678 
	C450.702881,339.667236 468.202393,339.675659 485.701538,339.717407 
	C487.917633,339.722717 489.462646,338.711121 490.940552,337.268982 
	C516.343506,312.480927 541.744568,287.690979 567.198059,262.954895 
	C569.158691,261.049469 569.897766,258.982056 569.873535,256.304871 
	C569.775391,245.472763 569.734741,234.638367 569.865601,223.807144 
	C569.901611,220.824646 568.873413,218.776901 566.536743,217.036316 
	C558.785828,211.262589 551.004028,205.520645 543.459534,199.484680 
	C540.609558,197.204620 538.622192,198.743301 536.257507,199.883881 
	C512.713013,211.240585 485.599426,202.843155 474.025330,180.188660 
	C465.174652,162.864960 466.519806,145.702194 478.301056,130.349304 
	C489.835114,115.318626 505.839508,109.502258 524.430908,113.435387 
	C543.460205,117.461143 555.328552,129.640320 560.113342,148.486938 
	C562.710754,158.717758 561.434143,168.733490 556.942749,178.199112 
	C555.467407,181.308350 556.052185,182.801224 558.683350,184.705460 
	C567.722900,191.247513 576.525635,198.116043 585.530701,204.706940 
	C589.507874,207.617889 591.392639,211.287689 591.313110,216.197632 
	C591.198120,223.298645 591.283691,230.402908 591.283691,238.841309 
	C596.195862,234.240662 600.206543,230.614868 604.072144,226.840439 
	C618.019043,213.222519 632.001648,199.638992 645.777344,185.849274 
	C649.468262,182.154648 653.454590,180.507660 658.646973,180.526688 
	C690.645325,180.643997 722.644409,180.617615 754.643127,180.560547 
	C763.471130,180.544815 772.300110,180.097580 781.125671,180.178024 
	C784.905212,180.212479 786.595093,178.826218 787.939331,175.266693 
	C794.522095,157.835892 807.347107,147.378433 825.688232,145.074631 
	C844.037476,142.769836 859.297119,149.596024 869.726135,165.016006 
	C880.376099,180.762634 881.062866,197.693024 871.530518,214.116974 
	C861.786804,230.905167 846.447876,238.837387 827.091980,237.047623 
	C808.819336,235.358063 795.640137,225.480347 788.776123,208.418655 
	C786.580811,202.961792 784.252808,201.621552 778.445679,201.659637 
	C740.954773,201.905579 703.459656,201.611755 665.966919,201.345184 
	C662.174072,201.318207 659.420166,202.389893 656.699951,205.055832 
	C608.620483,252.176819 560.456848,299.211945 512.301453,346.255432 
	C510.872803,347.651062 509.037903,348.721527 507.897949,350.307098 
	C500.868896,360.083801 491.198425,361.927216 479.805328,361.325195 
	C465.179810,360.552429 450.481750,361.231445 435.817596,361.059540 
	C431.700684,361.011261 429.773621,362.042816 429.792389,366.615143 
	C429.859375,382.931335 429.616333,399.249146 429.434174,415.565704 
	C429.395203,419.054138 430.669434,420.684387 434.435699,420.639618 
	C462.927917,420.301025 491.426117,420.517700 519.916748,420.499420 
	C529.149109,420.493500 534.789917,417.090820 540.707764,410.932922 
	C578.919250,371.170990 617.431946,331.698669 655.783569,292.071045 
	C659.353577,288.382263 663.206177,286.211609 668.531799,286.530701 
	C673.175049,286.808868 677.876526,286.147186 682.515442,286.455292 
	C686.734497,286.735504 688.612427,285.173279 690.095947,281.189972 
	C698.695312,258.100372 722.176636,245.958099 745.719543,252.092239 
	C770.948730,258.665741 785.922485,286.060669 777.909302,310.984558 
	C769.741333,336.389648 741.916260,349.807312 717.198669,340.293518 
	C703.575256,335.049896 694.546753,325.333588 689.748657,311.724854 
	C688.615967,308.512299 687.123657,307.577118 683.759399,307.244720 
	C674.823059,306.361755 668.088928,308.712524 662.053406,316.009949 
	C655.850647,323.509583 647.892090,329.557068 640.328430,336.587158 
	C644.945557,340.340881 648.930481,341.095642 652.505493,342.541595 
	C674.276611,351.347321 696.144043,359.914978 717.948914,368.637939 
	C722.041260,370.275085 726.169067,371.004578 730.593628,370.993256 
	C765.258789,370.904663 799.924561,370.875488 834.589233,371.034302 
	C838.895020,371.054016 841.069458,369.849060 842.608154,365.620392 
	C850.401306,344.202545 872.329651,331.826416 894.404175,336.012939 
	C917.031189,340.304291 932.711060,359.859711 932.273804,383.242767 
	C931.859558,405.394135 914.894897,424.111389 892.188477,427.469391 
	C871.044922,430.596283 850.417969,418.626312 842.880798,398.380951 
	C841.152222,393.737976 838.960632,392.103912 833.936829,392.136108 
	C797.772949,392.367920 761.606934,392.247040 725.441650,392.301453 
	C722.050232,392.306549 718.880188,391.781433 715.714722,390.519836 
	C686.939392,379.051361 658.108826,367.721039 629.373535,356.153656 
	C626.224915,354.886139 624.400940,355.160797 622.045898,357.605438 
	C596.498474,384.125031 570.777405,410.477509 545.257812,437.023743 
	C541.358582,441.079834 536.793213,441.948059 531.675537,441.921509 
	C500.681702,441.760651 469.687897,441.585693 438.694000,441.433624 
	C429.912567,441.390533 429.906372,441.418365 429.900879,449.947845 
	C429.894226,460.250336 429.899261,470.552826 429.899261,480.727203 
	C431.644745,482.278259 433.564789,481.783142 435.325623,481.784515 
	C474.490814,481.815186 513.656128,481.757233 552.821045,481.871429 
	C556.960510,481.883514 559.993835,480.712341 562.935303,477.720001 
	C578.705078,461.677094 594.699585,445.855377 610.550171,429.891510 
	C613.858276,426.559753 617.364624,424.509735 622.358093,424.522034 
	C672.355957,424.645172 722.354248,424.576843 772.352417,424.602814 
	C780.833374,424.607208 785.360046,429.342896 784.274902,436.827972 
	C783.602051,441.469055 779.933289,444.957428 775.207336,445.326691 
	C773.383850,445.469116 771.543213,445.413086 769.710388,445.412964 
	C723.712097,445.409485 677.713562,445.460999 631.715759,445.301178 
	C627.161133,445.285370 623.942261,446.642761 620.788269,449.876495 
	C610.683472,460.236786 600.286682,470.312286 589.925903,480.573730 
	C591.782654,482.343811 593.529236,481.754272 595.081299,481.755310 
	C654.412415,481.795471 713.743774,481.735779 773.074402,481.897339 
	C778.148254,481.911133 780.556519,480.519745 782.412048,475.492157 
	C789.666626,455.835968 810.578857,443.405670 830.359070,446.300598 
	C853.679260,449.713623 869.458191,465.942383 871.407776,488.519440 
	C873.431763,511.957520 858.591736,532.422119 835.747803,537.694946 
	C813.035706,542.937317 790.156982,530.697693 781.984863,508.489777 
	C780.406982,504.201996 778.292664,503.103485 774.034851,503.107117 
	C661.205750,503.203918 548.376587,503.201874 435.547455,503.098877 
	C430.886414,503.094635 429.322449,504.005188 429.604218,509.209137 
	C430.134186,518.995544 429.602203,528.846130 429.338623,538.665405 
	C429.240845,542.308411 430.359772,543.411377 434.253052,543.382263 
	C467.748627,543.131348 501.246338,543.153625 534.743408,543.114624 
	C538.791443,543.109924 542.010742,544.763245 544.865845,547.717529 
	C570.107971,573.836731 595.493591,599.817444 620.661377,626.007690 
	C623.969849,629.450623 626.685913,629.902893 631.082214,628.121338 
	C659.020447,616.799622 687.098877,605.824524 715.091187,594.635193 
	C718.420959,593.304199 721.722656,592.700500 725.285950,592.705200 
	C761.617859,592.753235 797.950317,592.644714 834.281311,592.828125 
	C838.829712,592.851074 841.049072,591.542725 842.664124,587.186340 
	C850.694336,565.526184 871.852783,553.642883 894.422302,557.737244 
	C916.058350,561.662231 932.158508,580.655640 932.290955,602.411011 
	C932.432312,625.630188 916.953430,644.498108 894.145264,648.908508 
	C872.649902,653.065063 851.172302,641.152771 842.889221,619.886780 
	C841.078918,615.239014 838.732422,614.039673 834.136658,614.059387 
	C798.971985,614.209900 763.805725,614.239441 728.641418,614.050964 
	C722.289246,614.016907 717.046875,616.859680 711.532410,619.013184 
	C689.661987,627.554321 667.876953,636.314148 646.062439,644.998413 
	C644.845886,645.482727 643.487549,645.754944 642.687622,647.115784 
	C642.684937,649.352966 644.536743,650.471863 645.872559,651.856934 
	C652.697571,658.933655 659.759949,665.792603 666.351318,673.078674 
	C669.444092,676.497375 672.708252,678.208923 677.237305,677.601196 
	C678.219482,677.469421 679.249390,677.470703 680.232056,677.601013 
	C685.665649,678.321472 688.543945,676.598938 690.772644,670.877808 
	C698.772156,650.343201 719.716125,638.560913 740.307861,642.027039 
	C762.801086,645.813354 778.581665,663.110229 780.156250,685.704468 
	C781.644226,707.054932 766.106262,727.864685 744.785889,733.075500 
	C723.037048,738.391113 699.746887,727.403992 691.652832,706.912476 
	C688.867676,699.861328 685.354492,698.107605 678.232971,698.208435 
	C658.619263,698.486206 663.713379,700.709839 649.828491,686.426636 
	C611.499146,646.997742 573.199158,607.540100 534.977356,568.006958 
	C532.451111,565.394043 529.939026,564.252686 526.281311,564.268677 
	C496.282959,564.399658 466.283813,564.338562 436.284912,564.341370 
	C429.700195,564.342041 429.858032,564.352844 429.839600,570.779663 
	C429.800964,584.266235 429.557922,597.751953 429.445496,611.238464 
	C429.412445,615.205811 429.111328,619.199341 429.918671,623.027344 
	C431.956238,624.274841 434.006470,623.814697 435.961548,623.818481 
	C453.794159,623.853455 471.627747,623.936096 489.458923,623.771118 
	C494.661804,623.723083 498.727112,625.444580 502.403534,629.047852 
	C542.387573,668.235718 582.425293,707.368835 622.468628,746.496155 
	C633.193787,756.975891 644.122192,767.252014 654.678162,777.898315 
	C658.456970,781.709351 662.220398,783.301453 667.776001,783.253662 
	C705.271912,782.931519 742.772095,783.013428 780.270142,783.147339 
	C784.570862,783.162659 786.652710,782.000854 788.138062,777.655701 
	C795.096985,757.298401 816.055908,745.009705 838.109558,747.863403 
	C858.300171,750.475891 874.979126,767.902771 877.467407,788.140686 
	C880.384033,811.861389 864.995239,833.658447 842.083679,839.073608 
	C818.864502,844.561401 796.069702,831.997375 787.813965,809.143066 
	C786.379028,805.170715 784.322449,804.275879 780.512817,804.284973 
	C740.014587,804.381714 699.515686,804.272217 659.017700,804.409485 
	C653.790649,804.427185 649.870056,802.819397 646.156189,799.152161 
	C628.262817,781.483154 610.171509,764.014648 591.287537,745.635132 
	C591.287537,753.471069 591.081665,760.357605 591.349365,767.225769 
	C591.585205,773.276123 589.489441,777.607117 584.403931,781.143982 
	C575.931152,787.036560 567.938538,793.615112 559.572571,799.668152 
	C556.393311,801.968506 555.643250,803.804016 557.325745,807.803650 
	C564.872864,825.744385 562.289795,842.677124 549.422668,857.148071 
	C536.653748,871.508606 520.073364,876.002686 501.706177,870.620789 
	C483.219086,865.203613 472.050751,852.041077 469.177429,833.183105 
	C466.540863,815.878845 472.126587,800.689514 486.328156,789.825745 
	C501.210205,778.441284 517.705017,776.451477 534.767883,784.500732 
	C539.424561,786.697449 542.476318,786.377319 546.306885,783.202393 
	C552.841370,777.786194 559.777039,772.849365 566.610474,767.800964 
	C568.965271,766.061401 569.920715,763.987732 569.878052,761.010681 
	C569.722839,750.179871 569.740112,739.345093 569.842712,728.513184 
	C569.868408,725.799377 569.018372,723.788391 567.082886,721.905212 
	C541.643982,697.153442 516.246155,672.359375 490.871399,647.541809 
	C489.201935,645.909058 487.384003,645.218994 485.067505,645.224426 
	C468.068298,645.264282 451.068634,645.281128 434.069855,645.178955 
	C430.637482,645.158325 429.348663,646.457214 429.373535,649.898743 
	C429.657684,689.224854 429.129883,728.551270 429.732880,767.880432 
	C430.080231,790.532898 429.571625,813.200256 429.309845,835.859253 
	C429.245728,841.407043 425.355316,845.261108 419.729492,845.309631 
	C404.064941,845.444702 388.390686,845.641541 372.734985,845.240784 
	C359.986633,844.914368 348.532471,833.960327 346.818970,820.210449 
	C345.236176,807.508972 344.634155,794.681213 343.732544,781.899780 
	C342.631744,766.293823 341.628937,750.680481 340.686127,735.064148 
	C340.529480,732.469482 339.330994,731.104126 336.972809,730.456421 
	C318.247864,725.313171 300.464508,717.866089 283.526184,708.409241 
	C280.484436,706.710999 278.424347,707.547363 275.997437,709.674316 
	C256.079498,727.131042 236.045044,744.454651 216.092361,761.871765 
	C211.612335,765.782349 206.603210,768.549988 200.380844,769.986084 
M151.453522,533.823364 
	C158.423416,534.352295 165.415436,534.683838 172.357346,535.462402 
	C180.284561,536.351379 182.305328,538.280273 184.194977,545.985474 
	C189.751999,568.644714 198.642181,589.913086 210.664505,609.893066 
	C214.855545,616.858215 214.273041,620.878418 208.958038,626.962341 
	C189.231796,649.542480 169.572357,672.181213 149.954453,694.855591 
	C145.949677,699.484375 146.171570,704.246765 150.514954,708.621765 
	C162.842361,721.038940 175.214294,733.412659 187.658203,745.712952 
	C192.503891,750.502747 196.311737,750.526733 201.734222,746.196594 
	C203.035019,745.157776 204.253082,744.015442 205.510345,742.922058 
	C227.003433,724.229797 248.471741,705.508972 270.006622,686.864990 
	C275.813690,681.837585 279.285736,681.373291 285.353363,685.060303 
	C305.731201,697.442444 327.454681,706.496399 350.599182,712.246094 
	C358.130981,714.117188 360.619232,717.279602 361.143219,724.786926 
	C363.228912,754.669006 365.262848,784.554688 367.286011,814.441101 
	C367.735168,821.076355 371.131195,824.544983 377.700562,824.611816 
	C385.865662,824.694946 394.044281,824.356445 402.193878,824.719788 
	C407.175171,824.941895 408.789734,823.457153 408.776001,818.299438 
	C408.605194,754.138550 408.656311,689.977051 408.640808,625.815735 
	C408.639252,619.401978 408.610077,619.392700 401.910950,619.385193 
	C376.839874,619.357117 353.553009,612.524597 333.316559,598.047302 
	C289.929535,567.007996 270.847534,524.703308 278.715485,471.475159 
	C287.662415,410.946869 342.153931,364.972168 403.656982,365.523071 
	C407.864410,365.560760 408.716614,364.112396 408.712524,360.371704 
	C408.641479,295.377197 408.644440,230.382553 408.716522,165.388031 
	C408.720459,161.836029 407.730164,160.222641 403.914429,160.302429 
	C395.085663,160.487030 386.249481,160.281784 377.418304,160.393661 
	C371.098633,160.473740 367.777771,163.531265 367.340912,169.751312 
	C365.253845,199.468536 363.197968,229.188232 361.252380,258.915009 
	C360.685303,267.579132 358.326447,270.892639 349.938477,272.939392 
	C327.261810,278.472778 306.018188,287.407410 286.035980,299.437836 
	C279.063293,303.635773 275.588440,303.166351 269.420990,297.779785 
	C247.209076,278.380188 224.984100,258.995575 202.755692,239.614883 
	C196.394058,234.068268 192.747406,234.120560 186.841583,239.999420 
	C175.148880,251.638748 163.499237,263.321503 151.861145,275.015503 
	C145.653427,281.253021 145.434967,285.010712 151.271072,291.747742 
	C170.578186,314.035248 190.007431,336.216919 209.317825,358.501587 
	C214.515198,364.499451 214.804672,367.887390 210.815613,374.777008 
	C206.306213,382.565308 201.961075,390.431763 198.196228,398.607941 
	C192.117218,411.809845 187.487061,425.511902 184.025864,439.623383 
	C182.493118,445.872528 179.507095,448.883209 174.155151,449.317535 
	C161.215485,450.367615 148.264709,451.282623 135.316132,452.220551 
	C117.381729,453.519684 99.438782,454.707794 81.512817,456.113464 
	C74.497231,456.663544 72.070427,459.424530 72.048164,466.356384 
	C71.992493,483.688019 71.989388,501.020111 72.044762,518.351746 
	C72.067871,525.586792 74.421326,528.318726 81.772522,528.879944 
	C104.675423,530.628723 127.594498,532.165649 151.453522,533.823364 
M408.664093,578.499268 
	C408.665039,524.352844 408.666595,470.206390 408.666229,416.059967 
	C408.666168,407.729767 408.549835,399.397583 408.704285,391.070312 
	C408.767792,387.646271 407.570343,386.066833 404.077484,386.379211 
	C400.763611,386.675568 397.442291,386.889404 394.123505,387.129669 
	C345.105347,390.678741 302.586700,432.145233 298.495544,481.184814 
	C295.168091,521.070679 309.420685,553.635498 341.468811,577.932861 
	C359.732758,591.779785 380.751099,597.842957 403.471802,598.675110 
	C407.354340,598.817261 408.921783,597.453491 408.712860,593.490479 
	C408.467651,588.838623 408.660004,584.163696 408.664093,578.499268 
M804.281311,478.880737 
	C803.661011,480.058624 802.965271,481.203461 802.432373,482.419647 
	C797.906372,492.750153 800.727722,504.542816 809.435669,511.819122 
	C817.995300,518.971497 829.723694,519.615417 839.161682,513.451111 
	C848.452332,507.382965 852.753235,496.132324 849.633362,485.575409 
	C846.712402,475.691650 839.828491,469.725555 829.956787,467.779877 
	C819.459900,465.710968 811.078674,469.883148 804.281311,478.880737 
M539.674377,154.092316 
	C539.434448,153.126404 539.250183,152.142548 538.945984,151.197311 
	C535.435486,140.288177 524.923584,132.803772 513.979126,133.400421 
	C502.537872,134.024155 492.572998,142.356216 490.454803,153.070099 
	C488.040436,165.282059 493.572815,176.550873 504.555054,181.581009 
	C522.252197,189.686752 542.769958,174.918182 539.674377,154.092316 
M874.116821,359.482758 
	C872.998779,360.203888 871.845642,360.876373 870.768250,361.653778 
	C861.502625,368.339844 858.299500,381.766998 863.369812,392.583740 
	C868.340881,403.188690 880.996155,409.097778 892.175781,406.033966 
	C906.662964,402.063751 914.638672,386.996643 909.615967,373.087311 
	C904.504211,358.931244 889.177734,352.808533 874.116821,359.482758 
M723.601318,664.932312 
	C710.565308,671.644958 705.216858,684.839478 710.423096,697.442322 
	C715.412537,709.520142 728.449951,715.806519 740.738037,712.059570 
	C754.547607,707.848633 761.975891,693.700195 757.565369,680.008911 
	C753.225159,666.535767 738.941040,659.915222 723.601318,664.932312 
M839.142212,817.816711 
	C849.565002,814.056396 855.638855,806.546387 856.530273,795.651978 
	C857.394043,785.096802 852.726929,776.716797 843.290649,771.836792 
	C833.764221,766.910156 824.292358,767.790588 815.668457,774.445251 
	C806.727722,781.344177 803.812622,794.190491 808.685425,804.641113 
	C813.841675,815.699707 825.468628,820.962036 839.142212,817.816711 
M848.238403,209.756256 
	C849.336060,208.509155 850.494812,207.310181 851.521790,206.007355 
	C860.288269,194.886337 857.720154,179.015472 845.782654,170.401367 
	C834.611816,162.340500 818.020874,165.517151 810.635803,177.130905 
	C803.732117,187.987610 805.225159,200.973663 814.350708,209.442734 
	C823.511597,217.944641 836.803040,218.257278 848.238403,209.756256 
M708.376221,295.697784 
	C708.719910,298.325867 708.814026,301.016174 709.450684,303.571259 
	C712.150818,314.408173 722.399109,322.024628 733.855835,321.892090 
	C745.821228,321.753662 755.338013,314.076965 758.277161,302.192535 
	C760.864197,291.732056 755.300659,280.020111 745.582581,274.816193 
	C732.521606,267.822174 711.697571,272.923920 708.376221,295.697784 
M533.548157,843.021484 
	C541.325012,833.582275 542.162720,821.747009 535.737488,812.090759 
	C529.937927,803.374756 518.522583,799.102295 508.543518,801.912781 
	C498.309784,804.794983 491.062317,813.179260 490.136627,823.206909 
	C489.082489,834.626221 494.332520,844.249695 504.227844,849.036377 
	C514.008057,853.767334 524.329163,851.799255 533.548157,843.021484 
M861.030884,604.399048 
	C862.111389,618.595154 874.046570,629.710815 886.965088,628.552246 
	C902.402161,627.167847 912.399841,615.148071 910.772034,599.930176 
	C909.405090,587.150757 898.171997,577.791382 884.713562,578.218140 
	C871.485657,578.637695 861.682556,589.102844 861.030884,604.399048 
z"/>
</svg>